HIERARCHY
ROOT Hips
{
  OFFSET -77.2288 98.3838 -105.889
  CHANNELS 6 Xposition Yposition Zposition Zrotation Xrotation Yrotation
  JOINT ToSpine
  {
    OFFSET -2.69724 7.43032 -0.144315
    CHANNELS 3 Zrotation Xrotation Yrotation
    JOINT Spine
    {
      OFFSET -0.0310711 10.7595 1.96963
      CHANNELS 3 Zrotation Xrotation Yrotation
      JOINT Spine1
      {
        OFFSET 13.1342 3.43533 0.764692
        CHANNELS 3 Zrotation Xrotation Yrotation
        JOINT Neck
        {
          OFFSET 29.8703 7.82586 -0.130764
          CHANNELS 3 Zrotation Xrotation Yrotation
          JOINT Head
          {
            OFFSET 9.52751 0.295786 -0.907742
            CHANNELS 3 Zrotation Xrotation Yrotation
            End Site
            {
              OFFSET 16.4037 0.713936 2.7358
            }
          }
        }
        JOINT LeftShoulder
        {
          OFFSET 27.5574 4.95586 2.47156
          CHANNELS 3 Zrotation Xrotation Yrotation
          JOINT LeftArm
          {
            OFFSET 1.20734 -0.998971 20.1238
            CHANNELS 3 Zrotation Xrotation Yrotation
            JOINT LeftForeArm
            {
              OFFSET 26.8049 -0.0536703 -0.155908
              CHANNELS 3 Zrotation Xrotation Yrotation
              JOINT LeftHand
              {
                OFFSET 26.6817 0 0.320147
                CHANNELS 3 Zrotation Xrotation Yrotation
                End Site
                {
                  OFFSET 18.6119 0 0.382219
                }
              }
            }
          }
        }
        JOINT RightShoulder
        {
          OFFSET 27.5927 4.71444 -2.65209
          CHANNELS 3 Zrotation Xrotation Yrotation
          JOINT RightArm
          {
            OFFSET 2.83739 -1.17114 -18.7564
            CHANNELS 3 Zrotation Xrotation Yrotation
            JOINT RightForeArm
            {
              OFFSET 28.839 -0.0548439 1.22491
              CHANNELS 3 Zrotation Xrotation Yrotation
              JOINT RightHand
              {
                OFFSET 26.5114 0 -0.101894
                CHANNELS 3 Zrotation Xrotation Yrotation
                End Site
                {
                  OFFSET 18.2168 0 0
                }
              }
            }
          }
        }
      }
    }
  }
  JOINT LeftUpLeg
  {
    OFFSET -4.76168 -1.9167 -10.2353
    CHANNELS 3 Zrotation Xrotation Yrotation
    JOINT LeftLeg
    {
      OFFSET 2.55951 -42.0585 -8.02213
      CHANNELS 3 Zrotation Xrotation Yrotation
      JOINT LeftFoot
      {
        OFFSET 3.16357 -42.5282 -3.95426
        CHANNELS 3 Zrotation Xrotation Yrotation
        JOINT LeftToeBase
        {
          OFFSET 0.346054 -6.02161 12.8035
          CHANNELS 3 Zrotation Xrotation Yrotation
          End Site
          {
            OFFSET 0.134235 -1.35082 5.13018
          }
        }
      }
    }
  }
  JOINT RightUpLeg
  {
    OFFSET -4.94151 -1.41743 10.6446
    CHANNELS 3 Zrotation Xrotation Yrotation
    JOINT RightLeg
    {
      OFFSET -2.56294 -42.0364 -7.94377
      CHANNELS 3 Zrotation Xrotation Yrotation
      JOINT RightFoot
      {
        OFFSET -3.0952 -42.555 -4.02241
        CHANNELS 3 Zrotation Xrotation Yrotation
        JOINT RightToeBase
        {
          OFFSET -0.0828122 -6.13587 12.8035
          CHANNELS 3 Zrotation Xrotation Yrotation
          End Site
          {
            OFFSET -0.131328 -1.35082 5.13018
          }
        }
      }
    }
  }
}
MOTION
Frames:	17
Frame Time:	0.0333333
-74.872 94.8024 -105.397 48.2146 -39.0546 -29.0857 -70.1915 0 88.8779 102.377 70.904 -15.7552 1.6177 20.4701 2.42026 -158.593 21.0558 176.153 -151.97 60.6056 -168.851 -0.731382 -17.0565 -36.5918 -75.1001 43.0984 -86.8336 9.08995 11.701 -37.9382 0.420957 0.000575333 0.35866 -2.04778 6.68316 45.032 -70.8703 -34.2087 94.6938 10.9557 -14.5926 37.6002 0.58676 0.000330984 0.0646652 -31.4026 -2.90182 92.7478 -2.90777 44.7264 -5.05458 4.50289 -18.7653 -1.42709 0.921563 -6.65554 15.8632 -33.0794 3.06137 88.4048 1.68116 39.8932 -0.178815 -7.18585 -16.9222 1.33977 2.69462 -4.20855 -17.4688 
-74.2368 94.1727 -105.278 46.2757 -39.1424 -29.8057 -70.1915 0 88.8779 107.903 70.5612 -20.6848 0.789857 20.7413 2.30744 -158.667 20.7174 175.136 -150.241 60.2285 -168.91 -0.764746 -17.1905 -36.5686 -75.7552 43.4993 -86.199 8.89934 10.6563 -39.9358 0.420957 0.000575333 0.35866 -2.13375 6.8989 45.2693 -70.4885 -33.3191 94.2527 10.8892 -13.9624 38.63 0.58676 0.000330984 0.0646652 -29.117 -2.60443 92.0829 -3.24822 47.4846 -4.95422 4.74123 -20.0563 -1.47061 0.64668 -6.20827 15.7627 -31.0496 3.83099 88.5354 1.77893 41.8257 -0.550934 -7.38724 -17.5664 1.34777 2.61964 -5.46908 -17.1262 
-73.3509 93.4164 -104.898 44.9301 -39.2336 -30.8798 -70.1915 0 88.8779 110.081 70.3783 -23.4426 0.842293 20.8629 2.29704 -158.473 20.3339 174.363 -149.554 59.9055 -168.111 -0.86284 -17.5542 -36.6059 -77.114 43.8048 -84.7673 8.92182 9.87763 -42.1428 0.420957 0.000575333 0.35866 -2.13733 6.94807 45.1038 -70.1279 -33.2553 94.2523 11.1151 -14.1246 38.8861 0.58676 0.000330984 0.0646652 -27.7662 -3.32289 91.317 -3.53913 49.8721 -4.80445 4.78657 -21.4625 -1.52333 0.610635 -6.23437 16.0828 -29.1038 4.10452 89.4509 1.97481 44.988 -0.966073 -6.24855 -18.9645 1.41012 2.63077 -5.87582 -17.3536 
-72.2008 92.5642 -104.34 44.5932 -39.3905 -31.8748 -70.1915 0 88.8779 110.237 70.4183 -25.2898 1.4709 20.8142 2.68323 -157.24 19.9325 173.289 -147.767 59.5147 -167.824 -0.968622 -18.0084 -36.4294 -78.8684 44.186 -83.1809 9.8599 9.83671 -45.1405 0.420957 0.000575333 0.35866 -2.07733 6.83142 44.7763 -71.2821 -34.0256 93.0722 12.0875 -15.1987 39.2756 0.58676 0.000330984 0.0646652 -27.545 -4.77088 90.8584 -3.59908 51.7535 -2.85459 5.16548 -23.2676 -1.56576 0.533323 -5.59876 14.0027 -27.2009 3.97847 90.9482 2.36995 49.7963 -2.25962 -5.42836 -19.4296 1.45376 2.56396 -8.36755 -17.1821 
-70.8575 91.9181 -103.576 44.9465 -39.874 -31.4705 -70.1915 0 88.8779 113.255 69.9338 -28.6417 1.15153 20.6902 2.96423 -155.762 19.5371 172.541 -146.545 59.1394 -167.696 -1.05059 -18.2931 -36.5244 -79.4959 43.7569 -82.3532 11.2971 9.92428 -48.8172 0.420957 0.000575333 0.35866 -2.03235 6.61343 45.1271 -72.5335 -34.7728 90.4072 12.0659 -14.8459 39.8753 0.58676 0.000330984 0.0646652 -28.2046 -4.98212 90.7429 -3.92217 53.6506 -2.93979 5.29591 -25.0747 -1.62255 0.254353 -5.31774 14.629 -25.054 4.83651 92.0904 3.07975 56.239 -3.49323 -4.82239 -15.871 1.34742 2.33007 -14.2908 -17.2358 
-69.2963 91.4874 -102.501 44.8095 -40.3113 -30.9968 -70.1915 0 88.8779 114.422 69.4666 -29.4132 1.12446 20.3961 3.12738 -155.81 18.9826 172.995 -146.523 58.5706 -167.746 -0.91281 -17.8213 -36.334 -80.053 43.617 -82.8613 13.1365 10.0056 -52.89 0.420957 0.000575333 0.35866 -2.04662 6.68743 44.9908 -73.0137 -35.9375 87.9026 10.4162 -12.8347 39.6868 0.58676 0.000330984 0.0646652 -29.1282 -4.57065 90.6619 -4.09507 54.7487 -2.55667 4.89185 -27.3151 -1.74813 -0.040365 -4.63324 13.8357 -21.2781 6.28734 92.5946 4.40321 64.1502 -7.05801 -5.40288 -8.35629 1.11034 2.27247 -20.6497 -14.2671 
-67.3702 91.4575 -100.971 45.2346 -40.1537 -30.1545 -70.1915 0 88.8779 113.835 68.8205 -28.6999 1.34563 19.6056 3.47829 -156.018 18.663 173.713 -147.088 58.2574 -167.641 -0.830677 -17.598 -35.9883 -80.8358 43.5498 -83.978 14.8166 10.0456 -56.1201 0.420957 0.000575333 0.35866 -2.09606 6.82573 45.0669 -72.7181 -36.8197 85.4924 9.21157 -11.5813 39.0499 0.58676 0.000330984 0.0646652 -31.5001 -4.36165 90.7567 -4.02313 53.8982 -3.17837 5.29543 -28.9584 -1.76317 -0.418558 -4.20475 14.4812 -17.3858 6.68936 91.6926 6.5262 71.0446 -10.606 -6.89601 -4.27664 1.11294 2.25366 -18.74 -13.4528 
-65.088 92.2487 -99.0241 45.1938 -39.8393 -29.0866 -70.1915 0 88.8779 111.494 68.5757 -25.2222 2.01899 18.8587 3.58859 -155.441 18.3003 174.008 -147.021 57.828 -168.147 -0.881454 -17.8496 -35.8018 -81.2658 43.0534 -85.2545 15.6559 9.4883 -59.038 0.420957 0.000575333 0.35866 -2.06822 6.59407 45.7379 -71.8628 -37.3682 83.3582 7.3959 -9.83759 37.4174 0.58676 0.000330984 0.0646652 -35.2888 -3.69257 90.3196 -3.53936 49.9927 -4.4017 5.48876 -28.5592 -1.72286 0.0973846 -4.96695 14.2459 -14.5173 7.00585 89.9101 7.05829 72.4777 -11.6998 -7.80474 -3.93928 1.19653 2.308 -19.3656 -6.68104 
-62.5192 93.4773 -96.8787 45.0908 -39.5649 -28.1418 -70.1915 0 88.8779 110.535 67.9827 -23.2555 1.58373 17.8469 4.3755 -153.821 17.8902 175.091 -146.596 57.392 -168.044 -0.897932 -17.9517 -35.6743 -81.7047 42.5667 -86.609 15.951 9.00256 -60.7925 0.420957 0.000575333 0.35866 -2.06439 6.57869 45.7517 -70.5961 -38.5269 81.3808 7.41422 -10.7921 34.9778 0.58676 0.000330984 0.0646652 -40.2865 -3.58772 88.9916 -2.84118 43.8258 -4.8699 4.93691 -26.986 -1.72803 0.463981 -5.51387 14.1097 -12.304 6.81574 87.5179 7.30822 69.9924 -7.01628 -7.38164 -3.61463 1.15617 2.23713 -18.4687 -14.5532 
-59.7018 94.1978 -94.5672 45.2508 -39.51 -28.5611 -70.1915 0 88.8779 110.195 67.2901 -23.6218 0.149864 16.9961 5.33632 -152.198 17.3973 175.762 -145.724 56.7778 -168.58 -0.772013 -17.7239 -34.7279 -82.188 42.478 -88.1064 16.0617 8.63021 -61.9572 0.420957 0.000575333 0.35866 -2.05938 6.66165 45.2937 -68.409 -40.2564 80.341 6.84615 -11.1113 32.1179 0.58676 0.000330984 0.0646652 -45.5356 -4.57707 88.4933 -2.27143 38.1561 -5.57352 3.92004 -24.1042 -1.70902 1.86323 -7.75357 14.093 -10.6118 5.92973 86.191 5.17611 65.3218 -5.12659 -8.37535 -2.30791 1.2436 2.41062 -22.3277 -10.3163 
-57.0266 94.4222 -92.0644 44.45 -39.5981 -29.6799 -70.1915 0 88.8779 107.621 67.2199 -21.7514 -0.683545 16.5451 5.98637 -150.801 16.8639 175.483 -144.723 56.1316 -169.269 -0.590447 -17.3454 -33.4077 -83.4491 42.2293 -88.7426 16.699 8.08278 -64.3566 0.420957 0.000575333 0.35866 -1.9836 6.37223 45.5498 -65.7886 -41.0231 79.5661 6.33136 -11.1465 30.0701 0.58676 0.000330984 0.0646652 -49.1467 -4.2465 90.937 -1.8653 34.5961 -9.59521 3.86864 -20.9176 -1.55497 4.3767 -11.8723 15.6616 -8.61445 5.90314 85.1615 3.97902 59.1686 -2.4454 -7.21429 -3.44268 1.13348 2.30207 -20.617 -12.4535 
-54.4828 93.7825 -89.6162 44.0105 -39.2237 -30.9869 -70.1915 0 88.8779 104.27 66.9296 -19.8227 -1.24262 15.9168 6.42443 -149.799 16.2298 175.169 -144.519 55.5541 -168.891 -0.428161 -17.0382 -31.9856 -84.5788 41.2879 -89.5175 16.3181 6.98616 -66.8996 0.420957 0.000575333 0.35866 -1.99808 6.24811 46.3755 -63.8201 -41.2362 78.3749 5.64817 -10.3241 29.1421 0.58676 0.000330984 0.0646652 -52.0316 -3.48088 95.0562 -1.37051 32.7824 -14.6887 3.78564 -19.3923 -1.48541 7.45183 -16.482 16.1015 -6.35837 5.39557 84.6026 2.84496 53.1387 -1.4093 -6.0986 -4.43388 1.047 2.29982 -20.2249 -11.9683 
-51.672 92.4671 -86.9628 44.3475 -38.697 -32.0832 -70.1915 0 88.8779 98.976 66.6646 -15.7634 -0.045056 15.4558 5.72939 -149.86 15.8026 174.773 -144.517 55.1052 -169.218 -0.311195 -16.8286 -30.8298 -86.0522 39.5439 -90.8587 14.7882 5.78901 -68.552 0.420957 0.000575333 0.35866 -1.98643 5.989 47.5462 -61.7526 -40.7931 77.9462 5.26816 -10.0135 28.2076 0.58676 0.000330984 0.0646652 -55.1736 -4.58757 97.0301 -1.26243 31.9996 -18.0892 4.27575 -20.9314 -1.53238 7.6185 -16.7424 16.9489 -4.41681 4.67505 84.8791 2.5266 48.3569 0.535935 -5.72716 -4.94334 1.02883 2.24555 -21.0982 -14.8557 
-48.7136 90.509 -84.1043 44.7347 -39.3191 -33.1858 -70.1915 0 88.8779 96.0523 66.4944 -13.8711 1.16593 15.3623 5.01971 -150.21 15.3156 174.879 -144.715 54.6437 -169.015 -0.23967 -16.8367 -29.6603 -88.5093 38.2093 -91.038 14.3275 5.09731 -70.2745 0.420957 0.000575333 0.35866 -1.99958 5.89221 48.2772 -60.4353 -40.2002 77.288 5.30868 -9.99062 28.4467 0.58676 0.000330984 0.0646652 -59.4403 -5.76162 98.5449 -1.20501 30.9412 -19.3759 4.37591 -23.4663 -1.63865 7.17831 -16.1153 16.9745 -2.96799 5.21733 86.1316 2.29511 45.3152 1.47587 -7.36335 -4.4821 1.16389 2.11986 -23.774 -16.738 
-45.7186 88.2263 -81.1298 45.8331 -38.9693 -32.6543 -70.1915 0 88.8779 93.6114 65.8923 -12.2384 2.81465 14.4574 5.33315 -151.058 15.1352 175.712 -145.186 54.5492 -168.132 -0.108514 -16.4808 -28.6034 -92.2076 38.3038 -90.5914 14.362 4.84717 -71.1852 0.420957 0.000575333 0.35866 -1.97838 5.95957 47.5858 -63.9879 -40.0259 73.6196 6.2979 -10.2369 32.0686 0.58676 0.000330984 0.0646652 -63.5395 -5.91569 99.5985 -1.39269 30.3539 -20.5306 4.74539 -24.6974 -1.65749 7.72772 -16.8409 14.6145 -1.18466 5.21953 87.3651 2.41931 45.3952 2.31959 -5.35123 -5.78736 1.02046 1.96336 -22.7121 -21.5024 
-42.4728 85.925 -77.7437 46.7259 -38.4029 -32.0227 -70.1915 0 88.8779 92.9609 65.301 -12.2723 3.3958 13.5954 5.9038 -151.514 14.6858 174.949 -144.161 53.9257 -169.503 -0.0304803 -16.5153 -27.1494 -93.538 38.4873 -90.6557 13.6353 4.76269 -70.5661 0.420957 0.000575333 0.35866 -1.85455 5.79599 46.4735 -68.7181 -40.1643 69.3191 8.16412 -10.8442 37.4821 0.58676 0.000330984 0.0646652 -67.2108 -6.0796 99.7026 -1.17993 30.7628 -22.51 5.18415 -25.9122 -1.66487 7.95586 -17.1834 14.6608 0.930696 5.12837 88.3392 2.81823 49.3106 1.85281 -4.48424 -7.22245 1.00753 1.87159 -23.0727 -22.9127 
-38.9525 84.1377 -74.0473 47.124 -37.3989 -30.9654 -70.1915 0 88.8779 93.5351 64.5033 -12.4445 3.44613 12.4282 6.72076 -152.518 14.3987 174.645 -143.794 53.4473 -170.795 -0.0257628 -16.6657 -26.6439 -94.1088 38.7397 -90.0428 12.9128 5.06411 -68.4257 0.420957 0.000575333 0.35866 -1.7695 5.68723 45.6667 -71.594 -39.8696 66.7346 7.76346 -8.49734 42.8826 0.58676 0.000330984 0.0646652 -70.5515 -5.01103 99.7517 -0.932038 30.8019 -24.2676 4.08998 -25.6122 -1.76279 8.54444 -18.0515 12.1254 2.61183 4.69831 87.872 3.74333 55.7239 0.686742 -4.91906 -8.03881 1.06612 1.82349 -23.6866 -22.8178 
